# xmcd
#
# Track frame offsets:
#	150
#	19474
#	35680
#	54970
#	72007
#	87543
#	105774
#	121039
#	139042
#	155477
#	173181
#	187579
#	205177
#	221900
#	242344
#	256833
#
# Disc length: 3694 seconds
#
# Revision: 1
# Processed by: cddbd v1.5.2PL0 Copyright (c) Steve Scherf et al.
# Submitted via: audiograbber 1.83.01
#
DISCID=cf0e6c10
DTITLE=Various Artist - Pop Culture Country Male Vol. 2
DYEAR=2006
DGENRE=Karaoke
TTITLE0=Currington, Billy - Must Be Doin' Something Right
TTITLE1=Griggs, Andy - If Heaven
TTITLE2=Urban, Keith - Making Memories of Us
TTITLE3=McGraw, Tim - Do You Want Fries With That
TTITLE4=Chesney, Kenny - Living In Fast Forward
TTITLE5=Cagle, Chris - Miss Me Baby
TTITLE6=Paisley, Brad - I'm Gonna Miss Her (The Fishing Song)
TTITLE7=Morgan, Craig - Redneck Yacht Club
TTITLE8=Big and Rich - Save a Horse (Ride a Cowboy)
TTITLE9=Montgomery Gentry - Something to Be Proud of
TTITLE10=Keith, Toby - I Wanna Talk About Me
TTITLE11=Diffie, Joe - In Another World
TTITLE12=McCoy, Neal - Billy's Got His Beer Goggles On
TTITLE13=Bentley, Dierks - Come a Little Closer
TTITLE14=Nichols, Joe - Tequila Makes Her Clothes Fall Off
TTITLE15=Paisley, Brad - Alcohol
EXTD=
EXTT0=
EXTT1=
EXTT2=
EXTT3=
EXTT4=
EXTT5=
EXTT6=
EXTT7=
EXTT8=
EXTT9=
EXTT10=
EXTT11=
EXTT12=
EXTT13=
EXTT14=
EXTT15=
PLAYORDER=
